HIERARCHY
ROOT mug3
{
	OFFSET 0.000000 0.000000 0.000000
	CHANNELS 6 Xposition Yposition Zposition Yrotation Xrotation Zrotation
	End Site
	{
		OFFSET 0.000000 0.000000 0.000000
	}
}
MOTION
Frames: 196
Frame Time: 0.008333334
1.743715 5.895101 3.383770 176.414500 5.359526 -8.724487 
1.738799 5.908484 3.395271 176.754900 4.542381 -8.970459 
1.733882 5.921867 3.406772 177.098400 3.726606 -9.221069 
1.728966 5.935250 3.418273 177.445300 2.912352 -9.476349 
1.724049 5.948634 3.429774 177.795500 2.099769 -9.736389 
1.718282 5.967809 3.445106 178.045600 1.076533 -9.856110 
1.712962 5.988207 3.462274 178.328500 0.191866 -10.369200 
1.707172 6.011553 3.478766 178.623000 -1.012451 -10.602540 
1.700528 6.036726 3.496852 179.002100 -2.262604 -10.842770 
1.693242 6.063946 3.515510 179.310300 -3.363770 -11.217410 
1.684895 6.092285 3.535005 179.512600 -4.491180 -11.597780 
1.676860 6.122039 3.554780 179.796900 -5.623199 -12.019470 
1.669181 6.153139 3.576182 -179.848600 -6.739349 -12.468290 
1.660326 6.185002 3.595968 -179.683800 -8.028564 -12.919250 
1.652463 6.217853 3.617392 -179.352100 -9.245026 -13.372010 
1.644437 6.252154 3.639708 -178.966800 -10.555820 -13.692230 
1.637109 6.285837 3.662750 -178.771500 -11.430080 -14.543950 
1.629022 6.321345 3.686936 -178.374600 -12.801030 -14.833250 
1.620703 6.358239 3.711264 -178.047400 -14.141660 -15.170410 
1.612512 6.394844 3.737045 -177.699400 -15.457090 -15.666960 
1.603177 6.431973 3.763475 -177.479800 -16.788700 -16.080380 
1.594117 6.467970 3.791200 -177.275200 -18.087340 -16.758910 
1.583849 6.505826 3.819205 -177.129200 -19.589690 -17.045290 
1.575421 6.540938 3.849404 -176.902300 -20.797090 -17.877380 
1.565915 6.577295 3.878323 -176.817200 -22.244510 -18.341400 
1.555902 6.613534 3.908595 -176.601200 -23.759550 -18.705690 
1.546737 6.647761 3.939143 -176.435700 -24.921020 -19.566100 
1.536589 6.683383 3.969098 -176.292800 -26.426390 -19.925960 
1.526915 6.717233 3.999792 -176.115500 -27.692810 -20.649960 
1.516461 6.751278 4.030574 -175.856300 -29.059780 -21.199830 
1.505729 6.785506 4.061418 -175.660300 -30.443150 -21.719390 
1.494430 6.818859 4.091526 -175.293400 -31.794070 -22.256650 
1.482758 6.851156 4.121577 -175.011000 -33.159300 -22.832180 
1.470891 6.883657 4.151359 -174.604700 -34.482600 -23.466460 
1.457885 6.915005 4.180731 -174.411800 -35.662570 -24.123050 
1.444912 6.945252 4.209857 -174.097400 -36.821560 -24.875850 
1.430840 6.976025 4.238579 -173.671300 -37.918180 -25.612640 
1.416537 7.006367 4.266321 -173.374200 -38.975620 -26.366090 
1.402213 7.035889 4.294581 -172.861300 -39.866760 -27.173490 
1.387073 7.065540 4.321843 -172.444400 -40.758940 -27.800480 
1.372057 7.093648 4.348563 -171.933100 -41.648990 -28.580020 
1.357434 7.121500 4.375871 -171.342400 -42.523040 -29.410400 
1.340978 7.148682 4.402153 -171.098700 -43.107180 -29.907200 
1.326360 7.173184 4.429383 -170.680600 -43.837740 -30.740230 
1.310332 7.199487 4.453742 -170.067100 -44.858950 -31.228270 
1.296078 7.221480 4.480006 -169.517300 -45.624050 -32.094850 
1.280562 7.242661 4.505598 -169.055900 -46.379300 -32.759090 
1.266538 7.263550 4.531226 -168.566900 -46.883030 -33.335240 
1.251614 7.282685 4.555869 -168.387700 -47.571840 -33.797580 
1.237627 7.300287 4.580248 -167.929400 -48.209500 -34.386540 
1.224928 7.316361 4.602867 -167.604800 -48.828430 -35.083190 
1.212259 7.331692 4.626069 -167.262200 -49.218140 -35.636170 
1.199998 7.344731 4.648034 -167.089800 -49.694150 -36.037050 
1.188148 7.357198 4.669205 -166.728700 -50.247340 -36.320280 
1.177518 7.368998 4.689058 -166.697600 -50.564700 -36.538420 
1.167051 7.378931 4.706539 -166.446500 -50.973570 -36.880830 
1.156671 7.388154 4.722349 -166.393300 -51.217070 -37.123290 
1.147251 7.395959 4.736380 -166.311900 -51.480590 -37.331910 
1.138171 7.403339 4.748738 -166.253200 -51.510250 -37.666290 
1.128857 7.409392 4.758711 -166.151100 -51.670410 -37.847290 
1.120620 7.415333 4.765805 -166.354700 -51.733760 -37.907710 
1.113253 7.419921 4.772983 -166.576100 -51.477020 -37.938840 
1.106349 7.425008 4.776793 -167.093900 -51.390080 -37.790310 
1.101298 7.430342 4.778926 -167.572200 -51.199280 -37.483580 
1.097590 7.434671 4.778512 -167.999600 -50.865970 -37.222960 
1.094563 7.437610 4.777878 -168.766500 -50.343230 -36.835020 
1.092779 7.439999 4.774849 -169.174900 -50.025970 -36.512850 
1.092708 7.441012 4.768613 -169.817300 -49.649320 -36.034120 
1.093091 7.440398 4.761270 -170.317200 -49.346890 -35.758820 
1.095565 7.438487 4.752571 -170.402400 -49.064850 -35.365020 
1.100936 7.434363 4.741484 -171.020000 -48.302760 -35.309450 
1.104648 7.429835 4.729051 -171.289300 -48.039980 -34.573970 
1.110996 7.423309 4.714879 -171.505200 -47.530820 -34.154390 
1.118492 7.416790 4.697627 -171.485900 -47.253970 -33.592130 
1.128447 7.406916 4.679778 -171.953200 -46.516170 -33.218290 
1.140103 7.397025 4.659608 -172.093200 -46.026980 -32.676790 
1.152375 7.386458 4.637800 -172.174700 -45.450870 -32.128780 
1.166235 7.375393 4.613587 -172.444900 -45.070470 -31.246460 
1.181733 7.362116 4.588743 -172.829900 -44.304900 -30.468960 
1.197058 7.347633 4.562459 -173.261000 -43.640320 -29.712710 
1.215055 7.332156 4.534366 -173.434800 -42.910800 -28.955720 
1.232744 7.315658 4.504364 -173.862600 -42.234650 -28.095700 
1.251644 7.298590 4.473291 -174.075700 -41.412410 -27.181490 
1.271166 7.281031 4.439040 -174.288500 -40.586300 -26.220550 
1.290000 7.262385 4.403601 -174.757500 -39.588010 -25.263550 
1.309461 7.243149 4.365728 -175.026000 -38.517940 -24.251400 
1.328886 7.222911 4.326521 -175.549600 -37.268520 -23.427610 
1.347779 7.200773 4.286686 -175.844500 -36.176940 -22.547240 
1.367048 7.178668 4.245160 -176.005200 -34.850400 -21.679690 
1.386099 7.153556 4.203585 -176.370900 -33.802890 -20.698760 
1.406115 7.127021 4.161549 -176.728000 -32.476140 -19.894200 
1.425167 7.099069 4.119137 -177.000000 -31.229520 -19.072850 
1.444553 7.069566 4.077956 -177.237500 -29.946620 -18.295100 
1.462843 7.039390 4.035697 -177.539300 -28.639560 -17.395050 
1.480637 7.008475 3.993131 -177.809600 -27.385010 -16.507540 
1.497315 6.976516 3.950761 -178.074400 -25.963960 -15.865080 
1.512362 6.945270 3.908230 -178.313300 -24.798770 -14.892120 
1.528777 6.910348 3.868332 -178.567600 -23.126460 -14.572660 
1.542168 6.876705 3.828059 -178.818300 -21.942020 -13.698880 
1.555089 6.842266 3.788635 -179.073200 -20.566470 -12.925170 
1.569123 6.804777 3.751170 -179.203000 -19.012510 -12.558200 
1.581650 6.767691 3.713835 -179.270200 -17.570560 -11.871150 
1.593770 6.729032 3.676343 -179.410200 -16.275600 -11.222600 
1.606298 6.688898 3.639673 -179.490000 -14.810820 -10.636110 
1.617987 6.647854 3.604721 -179.584800 -13.300230 -10.107360 
1.629713 6.606232 3.569762 -179.726200 -11.737000 -9.589600 
1.638564 6.566012 3.535129 -179.971700 -10.266110 -8.996094 
1.645369 6.525324 3.501776 179.818000 -8.837280 -8.498138 
1.651351 6.484606 3.468879 179.594600 -7.327118 -8.291626 
1.657101 6.443065 3.437983 179.400800 -5.696838 -8.479401 
1.659235 6.404507 3.407316 179.316300 -4.440002 -7.778931 
1.661879 6.364891 3.376546 179.204800 -3.092804 -7.481873 
1.664472 6.325091 3.347062 179.076200 -1.609955 -7.336517 
1.666436 6.285436 3.319765 179.061600 -0.278473 -7.058380 
1.668902 6.246283 3.293926 179.044300 1.195308 -6.861877 
1.671967 6.207994 3.270137 179.081200 2.542978 -6.587891 
1.674397 6.170263 3.247555 179.050200 3.671010 -6.213684 
1.676280 6.135323 3.227876 178.974400 4.765790 -5.930786 
1.677280 6.102383 3.210547 179.003900 5.686168 -5.778503 
1.676459 6.072918 3.195392 178.968400 6.436071 -5.638336 
1.674979 6.046855 3.182134 178.859800 7.039035 -5.521179 
1.673876 6.023821 3.171240 178.820500 7.549853 -5.461212 
1.672685 6.003817 3.163727 178.759300 7.887085 -5.498230 
1.671990 5.986687 3.158878 178.681200 8.009376 -5.374329 
1.670901 5.973006 3.154946 178.622600 8.060211 -5.314026 
1.669816 5.961626 3.152594 178.525700 8.063408 -5.253113 
1.668657 5.953358 3.151239 178.476100 8.029115 -5.226807 
1.667476 5.948050 3.150779 178.409500 7.947381 -5.382324 
1.665501 5.946636 3.150953 178.409000 7.798617 -5.490967 
1.662360 5.948677 3.152936 178.418900 7.573018 -5.664978 
1.658776 5.954760 3.155233 178.399400 7.135223 -5.867249 
1.654673 5.963718 3.159703 178.377800 6.649593 -6.044922 
1.650185 5.976465 3.165664 178.415000 6.118092 -6.406250 
1.644903 5.992587 3.172481 178.352500 5.385340 -6.653107 
1.639940 6.011115 3.181296 178.264300 4.600970 -7.070282 
1.634163 6.032591 3.192292 178.141700 3.672552 -7.451416 
1.627889 6.056742 3.205324 178.017700 2.716023 -7.941956 
1.621282 6.083544 3.220160 177.914600 1.581298 -8.288116 
1.613264 6.111940 3.237100 177.675600 0.462737 -8.881714 
1.605679 6.141690 3.256727 177.701600 -0.755188 -9.491638 
1.596228 6.173641 3.276240 177.438800 -2.154785 -9.960449 
1.587321 6.206213 3.298918 177.463800 -3.719818 -10.468570 
1.576863 6.240645 3.323408 177.396800 -5.063873 -11.085570 
1.566103 6.275021 3.350753 177.550600 -6.611206 -11.711980 
1.554353 6.310244 3.378432 177.554900 -8.342377 -12.254430 
1.541685 6.345191 3.410312 177.504400 -9.970551 -12.941620 
1.528087 6.380079 3.443147 177.503300 -11.913270 -13.504060 
1.514697 6.413557 3.480199 177.585500 -13.607640 -14.428070 
1.500999 6.447266 3.519566 177.604600 -15.517850 -15.184940 
1.486497 6.479796 3.559873 177.691300 -17.565860 -15.856050 
1.471166 6.512657 3.601842 177.642200 -19.720920 -16.341430 
1.456203 6.542727 3.644747 177.754000 -21.799530 -16.905850 
1.441282 6.570893 3.689495 178.072300 -23.781680 -17.642610 
1.427353 6.597338 3.733716 178.295000 -25.616730 -18.556670 
1.412146 6.623775 3.778392 178.774100 -27.543370 -19.303410 
1.395844 6.649157 3.822703 179.308500 -29.457000 -20.048430 
1.379606 6.672922 3.868011 179.983400 -31.420470 -20.852660 
1.362858 6.695766 3.914346 -179.310900 -33.160770 -21.691190 
1.346232 6.717475 3.959916 -178.564400 -34.922640 -22.553310 
1.331015 6.738317 4.005208 -177.859100 -36.622160 -23.516630 
1.316393 6.758352 4.049547 -176.874900 -38.338680 -24.469850 
1.300961 6.776898 4.094646 -176.304400 -39.707000 -25.425930 
1.284577 6.795254 4.138052 -175.388300 -41.238740 -26.352750 
1.267231 6.813286 4.180772 -174.564300 -42.691410 -27.417420 
1.250284 6.830416 4.223245 -173.845600 -43.649990 -28.684810 
1.232970 6.847246 4.263683 -172.677300 -45.024110 -29.865540 
1.215568 6.863889 4.303799 -171.533300 -46.199800 -31.046330 
1.198504 6.878910 4.343010 -170.712400 -47.110470 -32.301300 
1.180787 6.892680 4.382844 -169.623400 -48.192960 -33.347960 
1.164585 6.904467 4.420762 -168.478500 -49.096250 -34.670620 
1.149463 6.914521 4.456758 -167.725100 -49.855410 -36.125460 
1.133163 6.923493 4.493270 -166.430600 -50.659330 -37.432620 
1.116439 6.931665 4.526824 -165.462000 -51.731450 -38.417790 
1.101678 6.938693 4.559146 -164.535800 -52.452390 -39.610840 
1.089253 6.943334 4.589378 -163.832000 -52.954010 -41.298740 
1.074484 6.949309 4.621402 -162.160100 -53.802430 -42.252110 
1.063529 6.952017 4.648351 -161.601600 -54.046110 -43.674500 
1.050912 6.956475 4.675131 -160.134500 -54.864260 -44.520290 
1.040490 6.960093 4.696744 -159.498300 -55.180570 -45.366460 
1.032224 6.961368 4.716925 -159.008600 -55.348570 -46.468780 
1.019665 6.963824 4.733172 -158.211800 -56.163480 -46.860500 
1.012147 6.966452 4.746097 -157.666300 -56.306490 -47.412290 
1.008669 6.967666 4.756302 -157.475900 -55.715330 -48.295900 
0.999928 6.968915 4.760478 -157.417400 -56.072630 -48.316410 
0.997472 6.972064 4.762957 -157.276700 -55.406100 -48.630860 
0.990825 6.972521 4.759121 -157.733100 -55.502750 -48.299040 
0.987038 6.976814 4.754546 -157.498300 -55.016820 -48.121370 
0.985285 6.977753 4.745075 -158.072600 -54.504390 -47.847470 
0.985501 6.979246 4.731630 -158.459600 -54.055080 -47.349610 
0.988387 6.977747 4.715362 -159.699400 -53.120420 -46.764800 
0.991030 6.977060 4.697191 -160.232700 -52.617710 -45.827970 
0.998696 6.976620 4.676654 -160.498800 -52.058530 -44.993290 
1.008601 6.972788 4.653632 -161.237800 -51.083160 -44.078800 
1.019448 6.968118 4.628139 -162.312000 -50.250000 -42.996340 
1.031996 6.963112 4.599400 -163.405900 -49.436460 -41.507420 
1.048163 6.955600 4.571077 -164.288800 -48.382110 -40.392000 
